<?xml version="1.0" encoding="UTF-8"?>
<svg width="74px" height="121px" viewBox="0 0 74 121" version="1.1" xmlns="http://www.w3.org/2000/svg" xmlns:xlink="http://www.w3.org/1999/xlink">
  <defs></defs>
  <g id="Round_3" stroke="none" stroke-width="1" fill="none" fill-rule="evenodd">
    <g id="Artboard-Copy-6" fill-rule="nonzero">
      <g id="Group-90">
        <g id="Group-89">
          <g id="Group">
            <path d="M73.5339631,13.9562113 C73.5339631,25.1314696 60.7376289,35.4812782 60.7376289,35.4812782 C59.9899285,36.0860652 58.7662569,36.0860652 58.0185565,35.4812782 C58.0185565,35.4812782 45.2222222,25.1314696 45.2222222,13.9562113 C45.2223646,6.24838885 51.5601277,0 59.3781283,0 C67.1961289,0 73.5339631,6.24838885 73.5339631,13.9562113 Z" id="Combined-Shape" fill="#6FA1D4"></path>
            <path d="M35.029894,16.5398181 L35.029894,30.6310426 C30.2425905,30.6310426 26.3101614,32.2678087 23.2326087,35.5413429 C20.155056,38.8148771 18.6162796,42.9599358 18.6162796,47.976519 C18.6162796,52.9931022 20.155056,57.0956481 23.2326087,60.2841548 C26.3101614,63.4726615 30.2425905,65.0669148 35.029894,65.0669148 C39.7317113,65.0669148 43.6427679,63.4514041 46.7630637,60.2203846 C49.8833595,56.9893652 51.4435084,52.9080766 51.4435084,47.976519 C51.4435084,47.9552472 51.4434794,47.9339905 51.4434213,47.9127488 L68.3745817,47.9127488 C68.3950239,48.4169101 68.405245,48.925568 68.405245,49.4387223 C68.405245,58.706649 65.0712296,66.5291181 58.4031988,72.9061315 C51.7351679,79.2831449 43.6565921,82.4716515 34.1674713,82.4716515 C24.6783504,82.4716515 16.6638903,79.3044022 10.1240908,72.9699016 C3.58429133,66.635401 0.314391589,58.7916746 0.314391589,49.4387223 C0.314391589,40.1707956 3.60566388,32.3695838 10.1882065,26.0350832 C16.7707491,19.7005827 24.8065818,16.5333333 34.2957026,16.5333333 C34.5413666,16.5333333 34.7860971,16.5354949 35.029894,16.5398181 Z M0.314391589,86.8 L16.1314522,86.8 C16.1314522,96.8733761 24.48366,105.019036 34.7604347,105.019036 C45.0372094,105.019036 53.4777328,96.8733761 53.4777328,86.8 L69.2064777,86.8 C69.2064777,105.314261 53.7961872,120.343459 34.7604347,120.343459 C15.7246822,120.343459 0.314391589,105.314261 0.314391589,86.8 Z M69.2064777,86.3066262 L53.4777328,86.3066262 L69.2064777,86.3066262 Z" id="Combined-Shape" fill="#192E44"></path>
          </g>
        </g>
      </g>
    </g>
  </g>
</svg>