<svg id="svg" version="1.1" width="400" height="225" viewBox="0 0 400 225" xmlns="http://www.w3.org/2000/svg" xmlns:xlink="http://www.w3.org/1999/xlink"><rect width="400" height="225" x="0" y="0" fill="#18293C"></rect><path id="path0" d="M0.048 13.813 L 0.098 27.625 10.059 33.553 C 22.300 40.838,22.125 40.754,25.391 40.949 C 29.408 41.190,28.568 41.572,46.973 31.111 C 51.902 28.308,62.870 22.081,79.883 12.424 C 94.496 4.130,94.486 4.137,94.861 0.976 L 94.976 0.000 47.487 0.000 L -0.003 0.000 0.048 13.813 M134.938 0.352 C 135.382 0.668,144.377 6.040,154.688 12.148 C 157.319 13.706,163.516 17.380,168.457 20.312 C 208.591 44.122,204.885 41.994,206.468 42.138 C 208.341 42.307,209.107 41.970,216.887 37.550 C 220.973 35.228,226.206 32.256,228.516 30.945 C 230.825 29.634,236.802 26.237,241.797 23.395 C 246.792 20.554,256.976 14.765,264.428 10.531 C 279.043 2.227,278.906 2.319,278.906 0.736 L 278.906 0.000 206.689 0.010 C 138.707 0.020,134.500 0.040,134.938 0.352 M113.178 10.946 C 111.256 11.197,109.785 11.804,106.514 13.694 C 104.811 14.679,95.771 19.923,86.426 25.348 C 77.080 30.773,62.842 39.038,54.785 43.714 C 46.729 48.391,38.463 53.190,36.417 54.380 C 34.371 55.570,25.342 60.806,16.351 66.016 L 0.005 75.488 0.004 103.711 L 0.004 131.934 1.223 132.631 C 1.893 133.015,6.968 135.996,12.500 139.257 C 24.480 146.319,25.419 146.709,29.401 146.276 C 31.906 146.004,32.950 145.477,48.438 136.671 C 56.763 131.938,66.079 126.641,69.141 124.900 C 72.202 123.159,76.685 120.611,79.102 119.237 C 81.519 117.864,86.616 114.964,90.430 112.794 C 100.562 107.028,159.751 73.369,172.852 65.924 C 179.028 62.414,184.390 59.299,184.766 59.003 C 187.544 56.813,187.748 52.210,185.176 49.737 C 184.789 49.365,173.530 42.756,160.156 35.050 C 146.782 27.345,132.324 19.014,128.027 16.537 C 119.277 11.493,116.984 10.509,114.585 10.767 C 114.459 10.781,113.825 10.861,113.178 10.946 M292.623 11.743 C 292.272 11.844,287.350 14.591,281.686 17.847 C 276.021 21.102,268.047 25.682,263.965 28.024 C 259.883 30.366,255.137 33.092,253.418 34.082 C 251.699 35.071,245.459 38.653,239.551 42.041 C 233.643 45.429,226.172 49.715,222.949 51.566 C 219.727 53.417,213.794 56.823,209.766 59.135 C 205.737 61.446,200.420 64.500,197.949 65.921 C 195.479 67.342,187.217 72.084,179.590 76.460 C 171.963 80.836,161.504 86.838,156.348 89.799 C 151.191 92.759,144.600 96.541,141.699 98.202 C 134.500 102.326,134.375 102.428,134.375 104.183 C 134.375 106.228,133.116 105.356,151.953 116.351 C 160.601 121.399,174.004 129.222,181.738 133.736 C 189.473 138.250,200.459 144.666,206.152 147.992 C 211.846 151.319,223.096 157.890,231.152 162.596 C 239.209 167.301,249.141 173.103,253.223 175.489 C 300.199 202.949,297.507 201.441,299.512 201.428 C 301.281 201.416,299.281 202.505,351.259 173.250 L 400.001 145.817 399.952 108.347 L 399.902 70.877 383.008 61.207 C 373.716 55.888,360.313 48.216,353.223 44.158 C 307.761 18.135,296.900 11.950,296.309 11.749 C 295.528 11.484,293.533 11.481,292.623 11.743 M0.000 53.716 L 0.000 64.658 0.537 64.379 C 2.953 63.123,10.562 58.660,10.997 58.243 C 13.424 55.920,13.369 51.564,10.885 49.284 C 10.210 48.666,0.453 42.773,0.103 42.773 C 0.046 42.773,0.000 47.698,0.000 53.716 M113.770 116.682 C 111.583 117.106,111.519 117.140,92.188 128.291 C 73.765 138.918,69.481 141.388,57.324 148.390 C 48.819 153.289,48.082 154.042,48.289 157.617 C 48.484 160.983,48.744 161.206,60.742 168.317 C 66.167 171.532,73.462 175.858,76.953 177.930 C 80.444 180.002,87.036 183.913,91.602 186.620 C 96.167 189.327,102.756 193.238,106.244 195.311 C 114.917 200.467,115.589 200.735,119.311 200.534 C 121.905 200.394,123.185 199.932,127.051 197.741 C 131.790 195.054,146.537 186.678,156.250 181.156 C 160.815 178.560,169.110 173.850,174.683 170.689 C 187.057 163.670,187.382 163.390,187.393 159.764 C 187.404 156.063,187.981 156.497,165.820 143.572 C 155.562 137.588,141.587 129.435,134.766 125.453 C 118.308 115.847,118.235 115.816,113.770 116.682 M203.595 168.849 C 202.959 169.020,196.251 172.805,185.040 179.317 C 165.904 190.433,163.796 191.656,146.875 201.456 C 133.370 209.278,133.984 208.828,133.984 210.899 C 133.984 212.681,133.878 212.603,145.022 219.092 L 155.168 225.000 229.390 224.993 L 303.613 224.987 302.637 224.396 C 302.100 224.071,297.617 221.452,292.676 218.576 C 287.734 215.701,278.813 210.507,272.852 207.035 C 253.565 195.804,244.623 190.597,234.766 184.860 C 229.448 181.765,221.191 176.957,216.416 174.174 C 206.396 168.335,206.043 168.189,203.595 168.849 M381.871 169.363 C 381.514 169.466,379.228 170.702,376.792 172.110 C 370.876 175.529,367.083 177.719,361.230 181.096 C 349.074 188.111,323.823 202.696,319.043 205.464 C 313.279 208.802,312.901 209.131,312.894 210.823 C 312.886 212.626,312.874 212.617,323.787 219.092 L 333.746 225.000 366.873 225.000 L 400.000 225.000 400.000 201.297 L 400.000 177.595 393.115 173.591 C 384.930 168.831,384.403 168.633,381.871 169.363 " stroke="none" fill="#1F2F42" fill-rule="evenodd"></path></svg>
